<?xml version="1.0" encoding="UTF-8"?>
<svg width="36px" height="37px" viewBox="0 0 36 37" version="1.1" xmlns="http://www.w3.org/2000/svg" xmlns:xlink="http://www.w3.org/1999/xlink">
    <!-- Generator: Sketch 42 (36781) - http://www.bohemiancoding.com/sketch -->
    <title>add-contact-btn</title>
    <desc>Created with Sketch.</desc>
    <defs></defs>
    <g id="Page-1" stroke="none" stroke-width="1" fill="none" fill-rule="evenodd">
        <g id="Homepage" transform="translate(-1234.000000, -179.000000)" fill="#ED6464">
            <path d="M1252,179.25 C1254.48439,179.25 1256.82225,179.718745 1259.01367,180.65625 C1261.20509,181.593755 1263.11523,182.876945 1264.74414,184.505859 C1266.37306,186.134774 1267.65625,188.044911 1268.59375,190.236328 C1269.53125,192.427745 1270,194.765613 1270,197.25 C1270,199.734387 1269.53125,202.072255 1268.59375,204.263672 C1267.65625,206.455089 1266.37306,208.365226 1264.74414,209.994141 C1263.11523,211.623055 1261.20509,212.906245 1259.01367,213.84375 C1256.82225,214.781255 1254.48439,215.25 1252,215.25 C1249.51561,215.25 1247.17775,214.781255 1244.98633,213.84375 C1242.79491,212.906245 1240.88477,211.623055 1239.25586,209.994141 C1237.62694,208.365226 1236.34375,206.455089 1235.40625,204.263672 C1234.46875,202.072255 1234,199.734387 1234,197.25 C1234,194.765613 1234.46875,192.427745 1235.40625,190.236328 C1236.34375,188.044911 1237.62694,186.134774 1239.25586,184.505859 C1240.88477,182.876945 1242.79491,181.593755 1244.98633,180.65625 C1247.17775,179.718745 1249.51561,179.25 1252,179.25 Z M1252,213.035156 C1254.1797,213.035156 1256.2246,212.619145 1258.13477,211.787109 C1260.04493,210.955074 1261.70898,209.824226 1263.12695,208.394531 C1264.54493,206.964837 1265.66992,205.294931 1266.50195,203.384766 C1267.33399,201.4746 1267.75,199.429698 1267.75,197.25 C1267.75,195.070302 1267.33399,193.0254 1266.50195,191.115234 C1265.66992,189.205069 1264.54493,187.541023 1263.12695,186.123047 C1261.70898,184.705071 1260.04493,183.580082 1258.13477,182.748047 C1256.2246,181.916011 1254.1797,181.5 1252,181.5 C1249.8203,181.5 1247.7754,181.916011 1245.86523,182.748047 C1243.95507,183.580082 1242.29102,184.705071 1240.87305,186.123047 C1239.45507,187.541023 1238.33008,189.205069 1237.49805,191.115234 C1236.66601,193.0254 1236.25,195.070302 1236.25,197.25 C1236.25,199.429698 1236.66601,201.4746 1237.49805,203.384766 C1238.33008,205.294931 1239.45507,206.964837 1240.87305,208.394531 C1242.29102,209.824226 1243.95507,210.955074 1245.86523,211.787109 C1247.7754,212.619145 1249.8203,213.035156 1252,213.035156 Z M1259.875,196.125 C1260.17969,196.125 1260.44336,196.236327 1260.66602,196.458984 C1260.88867,196.681642 1261,196.945311 1261,197.25 C1261,197.554689 1260.88867,197.818358 1260.66602,198.041016 C1260.44336,198.263673 1260.17969,198.375 1259.875,198.375 L1253.125,198.375 L1253.125,205.125 C1253.125,205.429689 1253.01367,205.693358 1252.79102,205.916016 C1252.56836,206.138673 1252.30469,206.25 1252,206.25 C1251.69531,206.25 1251.43164,206.138673 1251.20898,205.916016 C1250.98633,205.693358 1250.875,205.429689 1250.875,205.125 L1250.875,198.375 L1244.125,198.375 C1243.82031,198.375 1243.55664,198.263673 1243.33398,198.041016 C1243.11133,197.818358 1243,197.554689 1243,197.25 C1243,196.945311 1243.11133,196.681642 1243.33398,196.458984 C1243.55664,196.236327 1243.82031,196.125 1244.125,196.125 L1250.875,196.125 L1250.875,189.375 C1250.875,189.070311 1250.98633,188.806642 1251.20898,188.583984 C1251.43164,188.361327 1251.69531,188.25 1252,188.25 C1252.30469,188.25 1252.56836,188.361327 1252.79102,188.583984 C1253.01367,188.806642 1253.125,189.070311 1253.125,189.375 L1253.125,196.125 L1259.875,196.125 Z" id="add-contact-btn"></path>
        </g>
    </g>
</svg>