<?xml version="1.0" encoding="UTF-8"?>
<svg width="37px" height="37px" viewBox="0 0 37 37" version="1.1" xmlns="http://www.w3.org/2000/svg" xmlns:xlink="http://www.w3.org/1999/xlink">
    <!-- Generator: Sketch 47.1 (45422) - http://www.bohemiancoding.com/sketch -->
    <title>back-btn</title>
    <desc>Created with Sketch.</desc>
    <defs></defs>
    <g id="Page-1" stroke="none" stroke-width="1" fill="none" fill-rule="evenodd">
        <g id="back-btn" fill="#F5A623">
            <path d="M18.95395,0.25 C21.4383374,0.25 23.7762047,0.718745312 25.9676219,1.65625 C28.1590391,2.59375469 30.0691762,3.87694498 31.6980906,5.50585938 C33.327005,7.13477377 34.6101953,9.04491092 35.5477,11.2363281 C36.4852047,13.4277453 36.95395,15.7656126 36.95395,18.25 C36.95395,20.7343874 36.4852047,23.0722547 35.5477,25.2636719 C34.6101953,27.4550891 33.327005,29.3652262 31.6980906,30.9941406 C30.0691762,32.623055 28.1590391,33.9062453 25.9676219,34.84375 C23.7762047,35.7812547 21.4383374,36.25 18.95395,36.25 C16.4695626,36.25 14.1316953,35.7812547 11.9402781,34.84375 C9.74886092,33.9062453 7.83872377,32.623055 6.20980938,30.9941406 C4.58089498,29.3652262 3.29770469,27.4550891 2.3602,25.2636719 C1.42269531,23.0722547 0.95395,20.7343874 0.95395,18.25 C0.95395,15.7656126 1.42269531,13.4277453 2.3602,11.2363281 C3.29770469,9.04491092 4.58089498,7.13477377 6.20980938,5.50585938 C7.83872377,3.87694498 9.74886092,2.59375469 11.9402781,1.65625 C14.1316953,0.718745312 16.4695626,0.25 18.95395,0.25 Z M18.95395,34.0351562 C21.1336484,34.0351562 23.1785498,33.6191448 25.0887156,32.7871094 C26.9988814,31.955074 28.6629273,30.8242259 30.0809031,29.3945312 C31.498879,27.9648366 32.6238677,26.2949314 33.4559031,24.3847656 C34.2879385,22.4745998 34.70395,20.4296984 34.70395,18.25 C34.70395,16.0703016 34.2879385,14.0254002 33.4559031,12.1152344 C32.6238677,10.2050686 31.498879,8.54102271 30.0809031,7.12304688 C28.6629273,5.70507104 26.9988814,4.58008229 25.0887156,3.74804688 C23.1785498,2.91601146 21.1336484,2.5 18.95395,2.5 C16.7742516,2.5 14.7293502,2.91601146 12.8191844,3.74804688 C10.9090186,4.58008229 9.24497271,5.70507104 7.82699688,7.12304688 C6.40902104,8.54102271 5.28403229,10.2050686 4.45199688,12.1152344 C3.61996146,14.0254002 3.20395,16.0703016 3.20395,18.25 C3.20395,20.4296984 3.61996146,22.4745998 4.45199688,24.3847656 C5.28403229,26.2949314 6.40902104,27.9648366 7.82699688,29.3945312 C9.24497271,30.8242259 10.9090186,31.955074 12.8191844,32.7871094 C14.7293502,33.6191448 16.7742516,34.0351562 18.95395,34.0351562 Z M26.82895,17.125 C27.1570766,17.125 27.4266052,17.2304677 27.6375438,17.4414062 C27.8484823,17.6523448 27.95395,17.9218734 27.95395,18.25 C27.95395,18.554689 27.8484823,18.8183583 27.6375438,19.0410156 C27.4266052,19.263673 27.1570766,19.375 26.82895,19.375 L14.1023875,19.375 L18.250825,23.4882812 C18.4617636,23.7226574 18.5672313,23.992186 18.5672313,24.296875 C18.5672313,24.601564 18.4617636,24.8710926 18.250825,25.1054688 C18.1336369,25.1992192 18.004732,25.2753903 17.8641063,25.3339844 C17.7234805,25.3925784 17.582857,25.421875 17.4422313,25.421875 C17.3016055,25.421875 17.160982,25.3925784 17.0203563,25.3339844 C16.8797305,25.2753903 16.7508256,25.1992192 16.6336375,25.1054688 L9.98910625,18.2851562 L16.6336375,11.4648438 C16.8680137,11.2304676 17.1375422,11.1132812 17.4422313,11.1132812 C17.7469203,11.1132812 18.0164488,11.2304676 18.250825,11.4648438 C18.4617636,11.6757823 18.5672313,11.9394515 18.5672313,12.2558594 C18.5672313,12.5722672 18.4617636,12.8359364 18.250825,13.046875 L14.1727,17.125 L26.82895,17.125 Z" id="îº"></path>
        </g>
    </g>
</svg>