<?xml version="1.0" encoding="UTF-8"?>
<svg width="36px" height="37px" viewBox="0 0 36 37" version="1.1" xmlns="http://www.w3.org/2000/svg" xmlns:xlink="http://www.w3.org/1999/xlink">
    <!-- Generator: Sketch 46.1 (44463) - http://www.bohemiancoding.com/sketch -->
    <title>logout-btn</title>
    <desc>Created with Sketch.</desc>
    <defs></defs>
    <g id="Page-1" stroke="none" stroke-width="1" fill="none" fill-rule="evenodd">
        <g id="Homepage" transform="translate(-489.000000, -179.000000)">
            <g id="logout-btn" transform="translate(489.000000, 179.000000)">
                <path d="M18,0.25 C20.4843874,0.25 22.8222547,0.718745313 25.0136719,1.65625 C27.2050891,2.59375469 29.1152262,3.87694498 30.7441406,5.50585938 C32.373055,7.13477377 33.6562453,9.04491092 34.59375,11.2363281 C35.5312547,13.4277453 36,15.7656126 36,18.25 C36,20.7343874 35.5312547,23.0722547 34.59375,25.2636719 C33.6562453,27.4550891 32.373055,29.3652262 30.7441406,30.9941406 C29.1152262,32.623055 27.2050891,33.9062453 25.0136719,34.84375 C22.8222547,35.7812547 20.4843874,36.25 18,36.25 C15.5156126,36.25 13.1777453,35.7812547 10.9863281,34.84375 C8.79491092,33.9062453 6.88477377,32.623055 5.25585938,30.9941406 C3.62694498,29.3652262 2.34375469,27.4550891 1.40625,25.2636719 C0.468745313,23.0722547 0,20.7343874 0,18.25 C0,15.7656126 0.468745313,13.4277453 1.40625,11.2363281 C2.34375469,9.04491092 3.62694498,7.13477377 5.25585938,5.50585938 C6.88477377,3.87694498 8.79491092,2.59375469 10.9863281,1.65625 C13.1777453,0.718745313 15.5156126,0.25 18,0.25 Z M18,34.0351562 C20.1796984,34.0351562 22.2245998,33.6191448 24.1347656,32.7871094 C26.0449314,31.955074 27.7089773,30.8242259 29.1269531,29.3945312 C30.544929,27.9648366 31.6699177,26.2949314 32.5019531,24.3847656 C33.3339885,22.4745998 33.75,20.4296984 33.75,18.25 C33.75,16.0703016 33.3339885,14.0254002 32.5019531,12.1152344 C31.6699177,10.2050686 30.544929,8.54102271 29.1269531,7.12304688 C27.7089773,5.70507104 26.0449314,4.58008229 24.1347656,3.74804688 C22.2245998,2.91601146 20.1796984,2.5 18,2.5 C15.8203016,2.5 13.7754002,2.91601146 11.8652344,3.74804688 C9.95506857,4.58008229 8.29102271,5.70507104 6.87304688,7.12304688 C5.45507104,8.54102271 4.33008229,10.2050686 3.49804688,12.1152344 C2.66601146,14.0254002 2.25,16.0703016 2.25,18.25 C2.25,20.4296984 2.66601146,22.4745998 3.49804688,24.3847656 C4.33008229,26.2949314 5.45507104,27.9648366 6.87304688,29.3945312 C8.29102271,30.8242259 9.95506857,31.955074 11.8652344,32.7871094 C13.7754002,33.6191448 15.8203016,34.0351562 18,34.0351562 Z" fill="#ED6565"></path>
                <g id="Door" transform="translate(12.500000, 10.780000)" stroke-linecap="round" stroke-width="1.5" stroke="#ED6565" stroke-linejoin="round">
                    <g id="Layer_1">
                        <path d="M0.393617208,0.219450302 L6.96667624,2.7866705 L6.96667624,16.720023 L0.435417265,13.8880691 C0.170364074,13.7808603 -0.00227655334,13.52259 3.17616417e-14,13.2366849 L3.17616417e-14,0.696667624 C3.17616417e-14,0.31190872 0.31190872,0 0.696667624,0 L10.1016806,0 C10.4864395,0 10.7983482,0.31190872 10.7983482,0.696667624 L10.7983482,13.2366849 C10.7983482,13.6214438 10.4864395,13.9333525 10.1016806,13.9333525 L6.96667624,13.9333525" id="Shape"></path>
                        <path d="M5.54199095,9.42591296 L4.22528914,8.88251221" id="Shape"></path>
                    </g>
                </g>
            </g>
        </g>
    </g>
</svg>