<?xml version="1.0" encoding="UTF-8"?>
<svg width="37px" height="37px" viewBox="0 0 37 37" version="1.1" xmlns="http://www.w3.org/2000/svg" xmlns:xlink="http://www.w3.org/1999/xlink">
    <!-- Generator: Sketch 47.1 (45422) - http://www.bohemiancoding.com/sketch -->
    <title>cancel-btn</title>
    <desc>Created with Sketch.</desc>
    <defs></defs>
    <g id="Page-1" stroke="none" stroke-width="1" fill="none" fill-rule="evenodd">
        <g id="cancel-btn" transform="translate(-8.000000, -8.000000)" fill="#ED6464">
            <g transform="translate(26.455844, 26.518290) rotate(45.000000) translate(-26.455844, -26.518290) translate(7.955844, 8.018290)" id="cancel">
                <path d="M18.45584,0.705844 C20.9402274,0.705844 23.2780947,1.17458931 25.4695119,2.112094 C27.6609291,3.04959869 29.5710662,4.33278898 31.1999806,5.96170338 C32.828895,7.59061777 34.1120853,9.50075492 35.04959,11.6921721 C35.9870947,13.8835893 36.45584,16.2214566 36.45584,18.705844 C36.45584,21.1902314 35.9870947,23.5280987 35.04959,25.7195159 C34.1120853,27.9109331 32.828895,29.8210702 31.1999806,31.4499846 C29.5710662,33.078899 27.6609291,34.3620893 25.4695119,35.299594 C23.2780947,36.2370987 20.9402274,36.705844 18.45584,36.705844 C15.9714526,36.705844 13.6335853,36.2370987 11.4421681,35.299594 C9.25075092,34.3620893 7.34061377,33.078899 5.71169938,31.4499846 C4.08278498,29.8210702 2.79959469,27.9109331 1.86209,25.7195159 C0.924585313,23.5280987 0.45584,21.1902314 0.45584,18.705844 C0.45584,16.2214566 0.924585313,13.8835893 1.86209,11.6921721 C2.79959469,9.50075492 4.08278498,7.59061777 5.71169938,5.96170338 C7.34061377,4.33278898 9.25075092,3.04959869 11.4421681,2.112094 C13.6335853,1.17458931 15.9714526,0.705844 18.45584,0.705844 Z M18.45584,34.4910003 C20.6355384,34.4910003 22.6804398,34.0749888 24.5906056,33.2429534 C26.5007714,32.410918 28.1648173,31.2800699 29.5827931,29.8503753 C31.000769,28.4206806 32.1257577,26.7507754 32.9577931,24.8406096 C33.7898285,22.9304438 34.20584,20.8855424 34.20584,18.705844 C34.20584,16.5261456 33.7898285,14.4812442 32.9577931,12.5710784 C32.1257577,10.6609126 31.000769,8.99686671 29.5827931,7.57889088 C28.1648173,6.16091504 26.5007714,5.03592629 24.5906056,4.20389088 C22.6804398,3.37185546 20.6355384,2.955844 18.45584,2.955844 C16.2761416,2.955844 14.2312402,3.37185546 12.3210744,4.20389088 C10.4109086,5.03592629 8.74686271,6.16091504 7.32888688,7.57889088 C5.91091104,8.99686671 4.78592229,10.6609126 3.95388688,12.5710784 C3.12185146,14.4812442 2.70584,16.5261456 2.70584,18.705844 C2.70584,20.8855424 3.12185146,22.9304438 3.95388688,24.8406096 C4.78592229,26.7507754 5.91091104,28.4206806 7.32888688,29.8503753 C8.74686271,31.2800699 10.4109086,32.410918 12.3210744,33.2429534 C14.2312402,34.0749888 16.2761416,34.4910003 18.45584,34.4910003 Z M26.33084,17.580844 C26.635529,17.580844 26.8991983,17.692171 27.1218556,17.9148284 C27.344513,18.1374857 27.45584,18.401155 27.45584,18.705844 C27.45584,19.010533 27.344513,19.2742023 27.1218556,19.4968596 C26.8991983,19.719517 26.635529,19.830844 26.33084,19.830844 L19.58084,19.830844 L19.58084,26.580844 C19.58084,26.885533 19.469513,27.1492023 19.2468556,27.3718596 C19.0241983,27.594517 18.760529,27.705844 18.45584,27.705844 C18.151151,27.705844 17.8874817,27.594517 17.6648244,27.3718596 C17.442167,27.1492023 17.33084,26.885533 17.33084,26.580844 L17.33084,19.830844 L10.58084,19.830844 C10.276151,19.830844 10.0124817,19.719517 9.78982438,19.4968596 C9.56716701,19.2742023 9.45584,19.010533 9.45584,18.705844 C9.45584,18.401155 9.56716701,18.1374857 9.78982438,17.9148284 C10.0124817,17.692171 10.276151,17.580844 10.58084,17.580844 L17.33084,17.580844 L17.33084,10.830844 C17.33084,10.526155 17.442167,10.2624857 17.6648244,10.0398284 C17.8874817,9.81717101 18.151151,9.705844 18.45584,9.705844 C18.760529,9.705844 19.0241983,9.81717101 19.2468556,10.0398284 C19.469513,10.2624857 19.58084,10.526155 19.58084,10.830844 L19.58084,17.580844 L26.33084,17.580844 Z"></path>
            </g>
        </g>
    </g>
</svg>