<?xml version="1.0" encoding="UTF-8"?>
<svg width="37px" height="37px" viewBox="0 0 37 37" version="1.1" xmlns="http://www.w3.org/2000/svg" xmlns:xlink="http://www.w3.org/1999/xlink">
    <!-- Generator: Sketch 47.1 (45422) - http://www.bohemiancoding.com/sketch -->
    <title>delete-btn</title>
    <desc>Created with Sketch.</desc>
    <defs>
        <circle id="path-1" cx="18.8326746" cy="18.1673254" r="18.1673254"></circle>
    </defs>
    <g id="Page-1" stroke="none" stroke-width="1" fill="none" fill-rule="evenodd">
        <g id="delete-btn" transform="translate(-1.000000, 0.000000)">
            <g id="Oval" transform="translate(0.953951, 0.000000)">
                <g id="path-1-Clipped">
                    <mask id="mask-2" fill="white">
                        <use xlink:href="#path-1"></use>
                    </mask>
                    <g id="path-1"></g>
                    <circle id="path-1" stroke="#EDB564" stroke-width="4.8" mask="url(#mask-2)" cx="18.8326746" cy="18.1673254" r="18.1673254"></circle>
                </g>
            </g>
            <g id="bin" transform="translate(11.953951, 9.000000)" fill="#EDB564">
                <path d="M14.6002527,3.08724727 C14.7525972,3.08724727 14.8844319,3.14291078 14.9957605,3.25423946 C15.1070892,3.36556814 15.1627527,3.49740276 15.1627527,3.64974727 C15.1627527,3.80209179 15.1070892,3.93392641 14.9957605,4.04525509 C14.8844319,4.15658377 14.7525972,4.21224727 14.6002527,4.21224727 L13.8268152,4.21224727 L12.5084559,17.2200598 C12.4850182,17.5247488 12.3590429,17.7825587 12.1305262,17.9934973 C11.9020094,18.2044358 11.6354105,18.3099035 11.3307215,18.3099035 L4.33462773,18.3099035 C4.02993871,18.3099035 3.76333982,18.2044358 3.53482305,17.9934973 C3.30630628,17.7825587 3.17447166,17.5247488 3.13931523,17.2200598 L1.83853398,4.21224727 L1.06509648,4.21224727 C0.912751973,4.21224727 0.780917354,4.15658377 0.669588672,4.04525509 C0.558259991,3.93392641 0.502596485,3.80209179 0.502596485,3.64974727 C0.502596485,3.49740276 0.558259991,3.36556814 0.669588672,3.25423946 C0.780917354,3.14291078 0.912751973,3.08724727 1.06509648,3.08724727 L5.02017461,3.08724727 L5.02017461,1.5579504 C5.02017461,1.19466733 5.14907957,0.88998288 5.40689336,0.6438879 C5.66470715,0.39779292 5.9693916,0.274747275 6.32095586,0.274747275 L9.34439336,0.274747275 C9.69595762,0.274747275 10.0006421,0.39779292 10.2584559,0.6438879 C10.5162696,0.88998288 10.6451746,1.19466733 10.6451746,1.5579504 L10.6451746,3.08724727 L14.6002527,3.08724727 Z M6.14517461,1.5579504 L6.14517461,3.08724727 L9.52017461,3.08724727 L9.52017461,1.5579504 C9.52017461,1.51107517 9.50259666,1.47005995 9.46744023,1.43490352 C9.43228381,1.3997471 9.39126859,1.38216915 9.34439336,1.38216915 L6.32095586,1.38216915 C6.27408063,1.38216915 6.23306541,1.3997471 6.19790898,1.43490352 C6.16275256,1.47005995 6.14517461,1.51107517 6.14517461,1.5579504 Z M11.401034,17.114591 L12.6842371,4.21224727 L2.98111211,4.21224727 L4.26431523,17.114591 C4.26431523,17.1263098 4.27310421,17.1409581 4.29068242,17.1585363 C4.30826064,17.1761146 4.32290893,17.1849035 4.33462773,17.1849035 L11.3307215,17.1849035 C11.3424403,17.1849035 11.3570886,17.1790442 11.3746668,17.1673254 C11.392245,17.1556066 11.401034,17.1380286 11.401034,17.114591 Z"></path>
            </g>
            <path d="M17.2233763,22.8255978 L22.3498749,22.8255978" id="Line" stroke="#EDB564" stroke-linecap="round" stroke-linejoin="round"></path>
            <path d="M17.2233763,24.8255978 L22.3498749,24.8255978" id="Line-Copy" stroke="#EDB564" stroke-linecap="round" stroke-linejoin="round"></path>
        </g>
    </g>
</svg>