<?xml version="1.0" encoding="UTF-8"?>
<svg width="35px" height="36px" viewBox="0 0 35 36" version="1.1" xmlns="http://www.w3.org/2000/svg" xmlns:xlink="http://www.w3.org/1999/xlink">
    <!-- Generator: Sketch 42 (36781) - http://www.bohemiancoding.com/sketch -->
    <title>facebook-icon</title>
    <desc>Created with Sketch.</desc>
    <defs></defs>
    <g id="Page-1" stroke="none" stroke-width="1" fill="none" fill-rule="evenodd">
        <g id="AddNewContact" transform="translate(-187.000000, -701.000000)">
            <g id="facebook-icon" transform="translate(184.614755, 698.899251)">
                <path d="M30.8571761,3 L9.42857909,3 C5.87946772,3 3,5.87946772 3,9.42857909 L3,30.8571761 C3,34.4062874 5.87946772,37.2857552 9.42857909,37.2857552 L21.3035932,37.2857552 L21.3035932,24.0044893 L16.8393022,24.0044893 L16.8393022,18.8259117 L21.3035932,18.8259117 L21.3035932,15.0089429 C21.3035932,10.5892948 24.0268108,8.1785776 27.9777083,8.1785776 C29.8527106,8.1785776 31.4821768,8.31250633 31.9509274,8.3794707 L31.9509274,13.0000119 L29.2277098,13.0223334 C27.0625287,13.0223334 26.6607425,14.0267989 26.6607425,15.5223364 L26.6607425,18.8259117 L31.7723557,18.8259117 L31.1027121,24.0044893 L26.6607425,24.0044893 L26.6607425,37.2857552 L30.8571761,37.2857552 C34.4062874,37.2857552 37.2857552,34.4062874 37.2857552,30.8571761 L37.2857552,9.42857909 C37.2857552,5.87946772 34.4062874,3 30.8571761,3 Z" id="facebook-square---FontAwesome" fill="#327CE7"></path>
                <rect id="base" x="0" y="0" width="40" height="40"></rect>
            </g>
        </g>
    </g>
</svg>