<?xml version="1.0" encoding="UTF-8"?>
<svg width="35px" height="36px" viewBox="0 0 35 36" version="1.1" xmlns="http://www.w3.org/2000/svg" xmlns:xlink="http://www.w3.org/1999/xlink">
    <!-- Generator: Sketch 42 (36781) - http://www.bohemiancoding.com/sketch -->
    <title>instagram-icon</title>
    <desc>Created with Sketch.</desc>
    <defs></defs>
    <g id="Page-1" stroke="none" stroke-width="1" fill="none" fill-rule="evenodd">
        <g id="AddNewContact" transform="translate(-187.000000, -806.000000)" fill="#C14FEA">
            <g id="instagram-icon" transform="translate(187.614755, 806.899251)">
                <path d="M22.8585652,17.1442727 C22.8585652,20.2915979 20.2915979,22.8585652 17.1442727,22.8585652 C13.9969475,22.8585652 11.4299801,20.2915979 11.4299801,17.1442727 C11.4299801,13.9969475 13.9969475,11.4299801 17.1442727,11.4299801 C20.2915979,11.4299801 22.8585652,13.9969475 22.8585652,17.1442727 Z M25.938926,17.1442727 C25.938926,12.2781954 22.0103499,8.34961933 17.1442727,8.34961933 C12.2781954,8.34961933 8.34961933,12.2781954 8.34961933,17.1442727 C8.34961933,22.0103499 12.2781954,25.938926 17.1442727,25.938926 C22.0103499,25.938926 25.938926,22.0103499 25.938926,17.1442727 Z M28.3496432,7.99247605 C28.3496432,6.85408183 27.4344635,5.93890217 26.2960693,5.93890217 C25.1576751,5.93890217 24.2424954,6.85408183 24.2424954,7.99247605 C24.2424954,9.13087026 25.1576751,10.0460499 26.2960693,10.0460499 C27.4344635,10.0460499 28.3496432,9.13087026 28.3496432,7.99247605 Z M17.1442727,3.08175591 C19.6442756,3.08175591 25.0014249,2.88086281 27.2558919,3.77372102 C28.0371428,4.08622139 28.6175006,4.46568613 29.2201799,5.06836542 C29.8228592,5.67104471 30.202324,6.25140254 30.5148243,7.03265347 C31.4076825,9.28712045 31.2067894,14.6442697 31.2067894,17.1442727 C31.2067894,19.6442756 31.4076825,25.0014249 30.5148243,27.2558919 C30.202324,28.0371428 29.8228592,28.6175006 29.2201799,29.2201799 C28.6175006,29.8228592 28.0371428,30.202324 27.2558919,30.5148243 C25.0014249,31.4076825 19.6442756,31.2067894 17.1442727,31.2067894 C14.6442697,31.2067894 9.28712045,31.4076825 7.03265347,30.5148243 C6.25140254,30.202324 5.67104471,29.8228592 5.06836542,29.2201799 C4.46568613,28.6175006 4.08622139,28.0371428 3.77372102,27.2558919 C2.88086281,25.0014249 3.08175591,19.6442756 3.08175591,17.1442727 C3.08175591,14.6442697 2.88086281,9.28712045 3.77372102,7.03265347 C4.08622139,6.25140254 4.46568613,5.67104471 5.06836542,5.06836542 C5.67104471,4.46568613 6.25140254,4.08622139 7.03265347,3.77372102 C9.28712045,2.88086281 14.6442697,3.08175591 17.1442727,3.08175591 Z M34.2871502,17.1442727 C34.2871502,14.7781984 34.3094717,12.4344456 34.175543,10.0683714 C34.0416142,7.32283239 33.4166135,4.88979378 31.4076825,2.88086281 C29.3987516,0.871931843 26.9657129,0.246931098 24.220174,0.113002367 C21.8540997,-0.0209263642 19.5103469,0.00139509095 17.1442727,0.00139509095 C14.7781984,0.00139509095 12.4344456,-0.0209263642 10.0683714,0.113002367 C7.32283239,0.246931098 4.88979378,0.871931843 2.88086281,2.88086281 C0.871931843,4.88979378 0.246931098,7.32283239 0.113002367,10.0683714 C-0.0209263642,12.4344456 0.00139509095,14.7781984 0.00139509095,17.1442727 C0.00139509095,19.5103469 -0.0209263642,21.8540997 0.113002367,24.220174 C0.246931098,26.9657129 0.871931843,29.3987516 2.88086281,31.4076825 C4.88979378,33.4166135 7.32283239,34.0416142 10.0683714,34.175543 C12.4344456,34.3094717 14.7781984,34.2871502 17.1442727,34.2871502 C19.5103469,34.2871502 21.8540997,34.3094717 24.220174,34.175543 C26.9657129,34.0416142 29.3987516,33.4166135 31.4076825,31.4076825 C33.4166135,29.3987516 34.0416142,26.9657129 34.175543,24.220174 C34.3094717,21.8540997 34.2871502,19.5103469 34.2871502,17.1442727 Z" id="instagram---FontAwesome"></path>
            </g>
        </g>
    </g>
</svg>