<?xml version="1.0" encoding="UTF-8"?>
<svg width="35px" height="34px" viewBox="0 0 35 34" version="1.1" xmlns="http://www.w3.org/2000/svg" xmlns:xlink="http://www.w3.org/1999/xlink">
    <!-- Generator: Sketch 42 (36781) - http://www.bohemiancoding.com/sketch -->
    <title>linkedin-icon</title>
    <desc>Created with Sketch.</desc>
    <defs></defs>
    <g id="Page-1" stroke="none" stroke-width="1" fill="none" fill-rule="evenodd">
        <g id="AddNewContact" transform="translate(-763.000000, -807.000000)">
            <g id="linkedin-icon" transform="translate(760.222906, 803.899251)">
                <path d="M10.7901879,14.6473341 L3.42410765,14.6473341 L3.42410765,36.7678962 L10.7901879,36.7678962 L10.7901879,14.6473341 Z M11.2589384,7.81696884 C11.236617,5.65178768 9.6741151,4 7.15179066,4 C4.65178768,4 3,5.65178768 3,7.81696884 C3,9.93750708 4.58482332,11.6339377 7.06250484,11.6339377 L7.10714775,11.6339377 C9.6741151,11.6339377 11.2812599,9.93750708 11.2589384,7.81696884 Z M37.2857552,24.0893097 C37.2857552,17.3035873 33.6696794,14.1339407 28.8259236,14.1339407 C24.8527046,14.1339407 23.1116311,16.3437647 22.1518085,17.8616237 L22.1964515,17.8616237 L22.1964515,14.6473341 L14.8526927,14.6473341 C14.8526927,14.6473341 14.9419785,16.7232295 14.8526927,36.7678962 L22.1964515,36.7678962 L22.1964515,24.4241315 C22.1964515,23.7544878 22.2634158,23.1071656 22.4419875,22.6160936 C22.9777024,21.2991278 24.183061,19.937519 26.2143134,19.937519 C28.8705666,19.937519 29.9419964,21.9687714 29.9419964,24.937525 L29.9419964,36.7678962 L37.2857552,36.7678962 L37.2857552,24.0893097 Z" id="linkedin---FontAwesome" fill="#2F64A1"></path>
                <rect id="base" x="0" y="0" width="40" height="40"></rect>
            </g>
        </g>
    </g>
</svg>