<?xml version="1.0" encoding="UTF-8"?>
<svg width="36px" height="36px" viewBox="0 0 36 36" version="1.1" xmlns="http://www.w3.org/2000/svg" xmlns:xlink="http://www.w3.org/1999/xlink">
    <!-- Generator: Sketch 47.1 (45422) - http://www.bohemiancoding.com/sketch -->
    <title>save-new-contact-btn</title>
    <desc>Created with Sketch.</desc>
    <defs></defs>
    <g id="Page-1" stroke="none" stroke-width="1" fill="none" fill-rule="evenodd">
        <g id="save-new-contact-btn">
            <path d="M18,0 C15.5156126,0 13.1777453,0.468745313 10.9863281,1.40625 C8.79491092,2.34375469 6.88477377,3.62694498 5.25585938,5.25585938 C3.62694498,6.88477377 2.34375469,8.79491092 1.40625,10.9863281 C0.468745313,13.1777453 0,15.5156126 0,18 C0,20.4843874 0.468745313,22.8222547 1.40625,25.0136719 C2.34375469,27.2050891 3.62694498,29.1152262 5.25585938,30.7441406 C6.88477377,32.373055 8.79491092,33.6562453 10.9863281,34.59375 C13.1777453,35.5312547 15.5156126,36 18,36 C20.4843874,36 22.8222547,35.5312547 25.0136719,34.59375 C27.2050891,33.6562453 29.1152262,32.373055 30.7441406,30.7441406 C32.373055,29.1152262 33.6562453,27.2050891 34.59375,25.0136719 C35.5312547,22.8222547 36,20.4843874 36,18 C36,15.5156126 35.5312547,13.1777453 34.59375,10.9863281 C33.6562453,8.79491092 32.373055,6.88477377 30.7441406,5.25585938 C29.1152262,3.62694498 27.2050891,2.34375469 25.0136719,1.40625 C22.8222547,0.468745313 20.4843874,0 18,0 Z M18,34 C15.7857032,34 13.708343,33.5778563 11.7678571,32.7335563 C9.82737125,31.8892563 8.13691196,30.741739 6.69642857,29.2909699 C5.25594518,27.8402008 4.11309946,26.1456804 3.26785714,24.2073579 C2.42261482,22.2690353 2,20.193991 2,17.9821628 C2,15.7703345 2.42261482,13.6952903 3.26785714,11.7569677 C4.11309946,9.81864508 5.25594518,8.13007037 6.69642857,6.69119287 C8.13691196,5.25231536 9.82737125,4.11074372 11.7678571,3.2664437 C13.708343,2.42214368 15.7857032,2 18,2 C20.2142968,2 22.291657,2.42214368 24.2321429,3.2664437 C26.1726287,4.11074372 27.863088,5.25231536 29.3035714,6.69119287 C30.7440548,8.13007037 31.8869005,9.81864508 32.7321429,11.7569677 C33.5773852,13.6952903 34,15.7703345 34,17.9821628 C34,20.193991 33.5773852,22.2690353 32.7321429,24.2073579 C31.8869005,26.1456804 30.7440548,27.8402008 29.3035714,29.2909699 C27.863088,30.741739 26.1726287,31.8892563 24.2321429,32.7335563 C22.291657,33.5778563 20.2142968,34 18,34 Z M25.0825688,11.3589744 L14.6238532,22.2 L9.91743119,17.3538462 C9.68501413,17.1145287 9.41773851,16.9948718 9.11559633,16.9948718 C8.81345415,16.9948718 8.54617853,17.1145287 8.31376147,17.3538462 C8.10458611,17.5692318 8,17.8384599 8,18.1615385 C8,18.484617 8.10458611,18.7538451 8.31376147,18.9692308 L13.8568807,24.6410256 C14.0660561,24.8803431 14.3275214,25 14.6412844,25 C14.9550474,25 15.2165127,24.8803431 15.4256881,24.6410256 C15.4489298,24.6170939 15.4721711,24.5931625 15.4954128,24.5692308 C15.5186546,24.545299 15.5418959,24.5213676 15.5651376,24.4974359 L26.6862385,12.974359 C26.8954139,12.7589733 27,12.4897452 27,12.1666667 C27,11.8435881 26.8954139,11.5743601 26.6862385,11.3589744 C26.4538215,11.1196569 26.1865459,11 25.8844037,11 C25.5822615,11 25.3149859,11.1196569 25.0825688,11.3589744 Z" id="Check" fill="#7ED321" fill-rule="nonzero"></path>
            <rect id="base" x="0" y="0" width="36" height="36"></rect>
        </g>
    </g>
</svg>