<?xml version="1.0" encoding="UTF-8"?>
<svg width="35px" height="35px" viewBox="0 0 35 35" version="1.1" xmlns="http://www.w3.org/2000/svg" xmlns:xlink="http://www.w3.org/1999/xlink">
    <!-- Generator: Sketch 42 (36781) - http://www.bohemiancoding.com/sketch -->
    <title>twitter-icon</title>
    <desc>Created with Sketch.</desc>
    <defs></defs>
    <g id="Page-1" stroke="none" stroke-width="1" fill="none" fill-rule="evenodd">
        <g id="AddNewContact" transform="translate(-763.000000, -701.000000)">
            <g id="twitter-icon" transform="translate(760.222906, 698.149251)">
                <path d="M31.5714626,13.7589414 C30.9464619,14.718764 30.1428895,15.5446578 29.2277098,16.19198 C29.2500313,16.3928731 29.2500313,16.5937662 29.2500313,16.7946593 C29.2500313,23.0000238 24.5178828,30.1428895 15.9018011,30.1428895 C13.2455479,30.1428895 10.7901879,29.3616386 8.71429253,28.0446727 C9.07143581,28.0893156 9.45090055,28.1116371 9.83036529,28.1116371 C12.0401893,28.1116371 14.0491203,27.3527076 15.6562651,26.1027061 C13.6026912,26.0580632 11.8839392,24.6964544 11.2812599,22.8437737 C11.5714388,22.8884166 11.8616177,22.9330595 12.1517966,22.9330595 C12.5759043,22.9330595 12.8884046,22.8660951 13.2901908,22.7544878 C11.1473311,22.3303802 9.42857909,20.4330565 9.42857909,18.1562681 L9.42857909,18.1116252 C10.1428657,18.446447 10.8794737,18.6696615 11.6607246,18.691983 C10.3884017,17.8437677 9.62947219,16.4151946 9.62947219,14.7857283 C9.62947219,13.937513 9.8750082,13.1116192 10.2767944,12.4196541 C12.5982257,15.2768003 16.0580513,17.1294811 19.9643059,17.3303742 C19.8750201,16.9955524 19.8526987,16.6160877 19.8526987,16.2589444 C19.8526987,13.6696556 21.9509154,11.5714388 24.5402042,11.5714388 C25.8794916,11.5714388 27.1071716,12.1294752 27.9553869,13.0446548 C29.0268167,12.8437617 30.0312822,12.4419755 30.9464619,11.9062606 C30.5893186,13.0000119 29.8527106,13.937513 28.8705666,14.5178709 C29.8303891,14.3839421 30.7232473,14.1384061 31.5714626,13.7589414 Z M37.2857552,9.42857909 C37.2857552,5.87946772 34.4062874,3 30.8571761,3 L9.42857909,3 C5.87946772,3 3,5.87946772 3,9.42857909 L3,30.8571761 C3,34.4062874 5.87946772,37.2857552 9.42857909,37.2857552 L30.8571761,37.2857552 C34.4062874,37.2857552 37.2857552,34.4062874 37.2857552,30.8571761 L37.2857552,9.42857909 Z" id="twitter-square---FontAwesome" fill="#32B0E7"></path>
                <rect id="base" x="0" y="0" width="40" height="40"></rect>
            </g>
        </g>
    </g>
</svg>